<?xml version="1.0" encoding="utf-8"?>
<!-- Generator: Adobe Illustrator 16.0.0, SVG Export Plug-In . SVG Version: 6.00 Build 0)  -->
<!DOCTYPE svg PUBLIC "-//W3C//DTD SVG 1.1//EN" "http://www.w3.org/Graphics/SVG/1.1/DTD/svg11.dtd">
<svg version="1.1" xmlns="http://www.w3.org/2000/svg" xmlns:xlink="http://www.w3.org/1999/xlink" x="0px" y="0px" width="30px"
	 height="30px" viewBox="0 0 30 30" enable-background="new 0 0 30 30" xml:space="preserve">
<g id="Layer_3">
	<path fill="#00CD5E" d="M15,0C6.716,0,0,6.716,0,15c0,8.285,6.716,15,15,15s15-6.715,15-15C30,6.716,23.284,0,15,0z M23.252,12.879
		c-2.697,2.71-5.4,5.414-8.111,8.11c-0.522,0.521-1.165,0.803-1.923,0.765c-0.788,0.042-1.437-0.299-1.972-0.823
		c-1.47-1.438-2.914-2.903-4.369-4.357c-0.541-0.543-0.873-1.214-0.865-1.961c0.009-1.095,0.564-2.194,1.831-2.659
		c1.192-0.438,2.214-0.08,3.093,0.767c0.68,0.655,1.349,1.321,1.999,2.006c0.237,0.248,0.362,0.29,0.634,0.015
		c1.885-1.914,3.797-3.8,5.687-5.709c0.934-0.943,2.524-1.072,3.627-0.216c0.722,0.559,1.074,1.3,1.105,2.162
		C24.013,11.681,23.768,12.361,23.252,12.879z"/>
</g>
<g id="Layer_2" display="none">
	<path display="inline" fill="#00CD5E" d="M15,0C6.716,0,0,6.715,0,15c0,8.284,6.716,15,15,15s15-6.716,15-15
		C30,6.715,23.284,0,15,0z M20.751,16.723c-0.782,0.845-1.565,1.688-2.332,2.546c-0.578,0.645-1.17,1.275-1.757,1.912
		c-0.627,0.679-1.219,1.39-1.861,2.052c-0.502,0.518-1.117,0.845-1.84,0.801c-1.166,0.045-2.283-0.922-2.445-2.114
		c-0.116-0.849,0.167-1.522,0.714-2.121c0.839-0.922,1.691-1.833,2.535-2.749c0.563-0.611,1.119-1.228,1.683-1.838
		c0.262-0.281,0.258-0.268,0-0.542c-0.855-0.918-1.706-1.842-2.556-2.766c-0.514-0.56-1.01-1.138-1.537-1.687
		c-0.893-0.93-0.979-2.383-0.152-3.355c0.509-0.599,1.147-0.896,1.894-0.897c0.791-0.001,1.471,0.309,1.965,0.973
		c0.184,0.249,0.428,0.451,0.633,0.687c0.48,0.547,0.992,1.066,1.486,1.601c0.786,0.852,1.57,1.706,2.353,2.562
		c0.465,0.51,0.927,1.024,1.385,1.542c0.329,0.374,0.508,0.81,0.57,1.311C21.593,15.465,21.299,16.133,20.751,16.723z"/>
</g>
</svg>
